<?xml version="1.0" encoding="UTF-8"?>
<svg id="Capa_1" xmlns="http://www.w3.org/2000/svg" version="1.1" viewBox="0 0 260 120">
  <!-- Generator: Adobe Illustrator 29.3.1, SVG Export Plug-In . SVG Version: 2.1.0 Build 151)  -->
  <defs>
    <style>
      .st0 {
        fill: #da3616;
      }

      .st1 {
        fill: #010101;
      }

      .st2 {
        fill: #0031fe;
      }

      .st3 {
        fill: #020202;
      }

      .st4 {
        fill: #333;
      }

      .st4, .st5, .st6, .st7 {
        stroke: #fff;
      }

      .st4, .st6, .st7 {
        stroke-linejoin: round;
        stroke-width: 3px;
      }

      .st8 {
        fill: #fe5118;
      }

      .st5 {
        fill: none;
        stroke-width: 1.2px;
      }

      .st5, .st9 {
        font-family: System, System;
        font-size: 26px;
      }

      .st5, .st9, .st10 {
        isolation: isolate;
      }

      .st9, .st6 {
        fill: #f7941d;
      }

      .st7 {
        fill: #ed1c24;
      }

      .st11 {
        display: none;
      }

      .st10 {
        font-family: SegoeUI-Semibold, 'Segoe UI';
        font-size: 12px;
        font-weight: 600;
      }

      .st12 {
        fill: #040404;
      }

      .st13 {
        fill: #fe5116;
      }
    </style>
  </defs>
  <g class="st11">
    <polygon class="st6" points="130 10 30 80 230 80 130 10"/>
    <polygon class="st7" points="80 80 130 110 30 80 80 80"/>
    <polygon class="st4" points="180 80 130 110 230 80 180 80"/>
    <text class="st9" transform="translate(55.9 105)"><tspan x="0" y="0">ADDBOX</tspan></text>
    <text class="st5" transform="translate(55.9 105)"><tspan x="0" y="0">ADDBOX</tspan></text>
    <text class="st10" transform="translate(83.6 125)"><tspan x="0" y="0">CONSTRUCTORA</tspan></text>
  </g>
  <g>
    <path class="st1" d="M150.5,110.2c1.6,0,5-.5,4.8,2s-1.7,1.8.5,3c.8-1.8,1.6-3.8,2.8-5.3.4,0,3.1,5,3,5.6-1.7.7-1.6-.9-3.3-.6s-.9.6-1.4.7-2.2,0-2.6,0c-1.3-.2-.9-1.9-2-1.7v1.7s-1.7,0-1.7,0v-5.5ZM153.4,111.6h-1.2s0,1,0,1c.8,0,1.3,0,1.2-1Z"/>
    <path class="st1" d="M146.6,110c3.8-.2,4.3,5.2.9,5.7s-5-5.5-.9-5.7ZM147.9,112.8c0-.6-.5-1.2-1.2-1.2s-1.2.5-1.2,1.2.5,1.2,1.2,1.2,1.2-.5,1.2-1.2Z"/>
    <path class="st1" d="M104.6,114.9c-1.4,1.5-4.8.9-5.2-1.3-.8-4.7,5.9-4.7,5.9-.7s-.4,1.6-.8,2ZM103.5,112.9c0-.6-.5-1.2-1.2-1.2s-1.2.5-1.2,1.2.5,1.2,1.2,1.2,1.2-.5,1.2-1.2Z"/>
    <path class="st3" d="M125.2,110.2c.7.1,1.4.9,1.5,1.6.2,1.2-.9,1.6-.9,1.9,0,.5,2.2,1.9.3,2.1s-1.1-1.2-2.4-1.7c-.3,0,.1,1.3-.3,1.6s-1.7.1-1.7-.3v-5.2c1.1.1,2.5-.2,3.5,0ZM123.6,112.6c.4.4,1.9-.6.8-.9s-1,.7-.8.9Z"/>
    <path class="st3" d="M105.8,110.3c0-.1.2-.3.5-.2.7.2,2.2,2,2.8,2v-1.9c.1,0,2,0,2,0v5.5c-1.3-.3-2.1-1.5-3.2-2.2-.3.5.2,1.7-.3,2.1s-1.7.1-1.7-.3c0-1.2-.2-4.1,0-5Z"/>
    <path class="st3" d="M129.1,110.2c0,.6-.2,3.7.4,3.9,1.9.4,1.2-2.8,1.3-3.9.6,0,1.7-.2,1.9.4s0,3.2-.3,3.8c-.5,1.7-4.1,1.9-4.9.2s-.6-3.2-.3-3.9,1.3-.3,1.9-.4Z"/>
    <path class="st3" d="M115.4,112.1c-.2,0-.1.2.2.5,1.8,3-2.1,4.1-4.1,2.3.2-2.1,2.2,0,2.6-.9s-2.7,0-2.4-2.4,2.3-1.8,3.5-1.1.7.8,0,1.7Z"/>
    <path class="st3" d="M98.4,113.5c0,0,.7,1.4.5,1.6-2.2,1.2-5.2.3-5-2.5s3.6-3.6,5.3-1.7c-.9,1.9-1.5.5-2.4.7-1.5.4-1.3,2.6.6,2.3s.9-.6,1.1-.5Z"/>
    <path class="st3" d="M137.8,113.5s.5,1,.5,1.1c0,1.5-5.1,1.9-5.1-1.7s3.5-3.9,5.3-1.9c-.9,2-1.6.4-2.4.6-1.2.3-1.4,2.7.7,2.4s.9-.6,1.1-.5Z"/>
    <path class="st12" d="M143.5,110.2c.6,2.2-1.4,1.5-1.4,1.7v3.5c0,.5-1.9.5-1.9,0v-3.5c0,0-1,.2-1.3-.2s0-1.5.3-1.5h4.4Z"/>
    <path class="st12" d="M121.2,110.2c.4,2.6-.9,1.4-1.2,1.7s.1,3.5-.3,3.8-1.3,0-1.7,0v-3.8c-1.8.2-1.5,0-1.4-1.7h4.6Z"/>
    <path class="st13" d="M113.5,106.3c-.6-5.3,0-10.8-.3-16.2,0-1,.5-1,1.3-1.1,3.5-.3,10-.3,12.8,1.8,4.2,3.2,3.9,11-.5,13.9s-3.2,1.6-3.7,1.6h-9.7ZM119,94.1v7.1c0,.9,4.2.4,5.2-1.5,1.8-3.8-1.6-6.3-5.2-5.5Z"/>
    <path class="st13" d="M94.6,106.3v-17.3h9.2c.2,0,2.3.6,2.6.7,6.3,2.4,6.6,12,.9,15.3s-2.7,1.2-3.3,1.2h-9.5ZM100.1,94.1v7.1c0,1,4.2.2,5.1-1.4,2-3.6-1.5-6.5-5.1-5.7Z"/>
    <path class="st13" d="M132.5,106.3v-16.9s.3-.4.4-.4h8.9c.5,0,2.6.6,3.2.9,2.8,1.4,3.2,5.8.3,7.4,3.8,1.7,3.4,6.8-.3,8.3s-2.1.7-2.2.7h-10.2ZM141.3,93.9c-.6-.5-4-.9-3.3,1.2s4.9.4,3.3-1.2ZM138.4,99.6c-.5.2-.5,1.5-.4,2,.3.8,4.9.6,3.9-1.3s-2.9-.9-3.6-.7Z"/>
    <path class="st13" d="M156.2,88.9c7.3-1,12.3,3.4,11.3,10.8s-12,9.5-16.5,3.9-1.4-13.8,5.2-14.7ZM161,100.5c1.4-1.5,1.1-5-.9-6.1-3.9-2-6.8,2.7-4.4,5.9s3.9,1.6,5.3.2Z"/>
    <path class="st13" d="M173.9,89c.9.3,2.3,4.3,3.1,4.3s2.1-4.3,2.9-4.3h5.3c.1,0,.5.5.3.7-.6,1.4-5,7-4.9,8,.1,1.5,4.8,6.5,5,8.5h-6.1c-.6-.4-2.4-4.2-2.6-4.3-.4-.1-.3.2-.4.3-.9,1.2-1.4,2.9-2.5,4h-5.9c0-.3,0-.6.2-.9.6-1.4,4.8-6.7,4.8-7.6l-4.9-8c-.2-.2.1-.7.3-.7,1.2,0,4.7-.2,5.5,0Z"/>
    <path class="st13" d="M93.1,106.3h-5.8c-.1,0-.7-1.8-.8-1.9-.2-.2-5.2-.1-5.6,0-.5.2-.9,1.9-1.2,1.9h-5.4c0-.4,0-.7.2-1.1,1.1-3.2,5.7-12.1,7.6-15.2s2.2-1.4,3.4.5c2.2,3.7,5.4,10.1,7,14.1s.4,1.2.5,1.8ZM85,100.1c.2-.2-1-2.5-1.3-2.9-.2,0-1.5,2.7-1.3,2.9h2.6Z"/>
    <path class="st8" d="M149.5,41.3h-20.8c-.1,0-.7.3-.9.4l-18.9,33.2h-21.6L127.9,4.1l21.6,37.2Z"/>
    <polygon class="st0" points="166.3 42.7 147.6 74.9 129.1 42.7 166.3 42.7"/>
    <polygon class="st2" points="170.2 74.9 149.8 74.9 159.5 58.3 170.2 74.9"/>
  </g>
</svg>